<svg xmlns="http://www.w3.org/2000/svg" viewBox="0 0 200 200" width="200" height="200">
  <defs>
    <linearGradient id="badgeGrad" x1="0%" y1="0%" x2="100%" y2="100%">
      <stop offset="0%" stop-color="#6366F1"/>
      <stop offset="45%" stop-color="#4F46E5"/>
      <stop offset="100%" stop-color="#3730A3"/>
    </linearGradient>
    <linearGradient id="gloss" x1="0%" y1="0%" x2="60%" y2="70%">
      <stop offset="0%" stop-color="#FFFFFF" stop-opacity="0.55"/>
      <stop offset="55%" stop-color="#FFFFFF" stop-opacity="0"/>
    </linearGradient>
  </defs>

  <rect width="200" height="200" rx="52" fill="url(#badgeGrad)"/>
  <rect width="200" height="200" rx="52" fill="url(#gloss)"/>
  <rect x="1" y="1" width="198" height="198" rx="51" fill="none" stroke="#FFFFFF" stroke-opacity="0.14"/>

  <g transform="translate(35,26)">
    <path d="M35 0C29.48 0 25 4.48 25 10v100c0 5.52 4.48 10 10 10h90c5.52 0 10-4.48 10-10V40l-40-40H35z"
          fill="rgba(255,255,255,0.16)" stroke="#FFFFFF" stroke-width="7" stroke-linejoin="round"/>
    <path d="M95 0v30c0 5.52 4.48 10 10 10h30" fill="none" stroke="#FFFFFF" stroke-width="7" stroke-linejoin="round"/>
    <path d="M48 76h64M48 98h38" stroke="#FFFFFF" stroke-width="7" stroke-linecap="round"/>
    <circle cx="48" cy="47" r="6" fill="#FFFFFF"/>
  </g>
</svg>
